# xmcd
#
# Track frame offsets:
#	150
#	12848
#	27106
#	44859
#	54997
#	70066
#	82166
#	94724
#	114591
#	128049
#	144425
#	156820
#
# Disc length: 2267 seconds
#
# Revision: 1
# Processed by: cddbd v1.5.2PL0 Copyright (c) Steve Scherf et al.
# Submitted via: audiograbber 1.83.01
#
DISCID=9c08d90c
DTITLE=Peter Salata - Paint the Town Peter Salata
DYEAR=1900
DGENRE=
TTITLE0=Country Boy
TTITLE1=Damn God Chance
TTITLE2=Thinking Of You
TTITLE3=How You Gonna Make It
TTITLE4=Old Love Songs
TTITLE5=I Love A Rainy Night
TTITLE6=I Thought I Mean Love
TTITLE7=My Girl Back On The Land
TTITLE8=Moving Out, Moving Up, Moving On
TTITLE9=For Always
TTITLE10=I Might Be Down
TTITLE11=Paint The Town
EXTD=
EXTT0=
EXTT1=
EXTT2=
EXTT3=
EXTT4=
EXTT5=
EXTT6=
EXTT7=
EXTT8=
EXTT9=
EXTT10=
EXTT11=
PLAYORDER=
